<?xml version="1.0" standalone="no"?>
<!DOCTYPE svg PUBLIC "-//W3C//DTD SVG 20010904//EN"
 "http://www.w3.org/TR/2001/REC-SVG-20010904/DTD/svg10.dtd">
<svg version="1.0" xmlns="http://www.w3.org/2000/svg"
 width="512.000000pt" height="512.000000pt" viewBox="0 0 512.000000 512.000000"
 preserveAspectRatio="xMidYMid meet">
<metadata>
Created by potrace 1.14, written by Peter Selinger 2001-2017
</metadata>
<g transform="translate(0.000000,512.000000) scale(0.100000,-0.100000)"
fill="#000000" stroke="none">
<path d="M2379 5116 c-2 -2 -35 -6 -74 -9 -318 -28 -699 -148 -1005 -318 -39
-22 -222 -142 -266 -174 -21 -15 -24 -14 -78 34 -87 76 -190 91 -284 42 -48
-25 -440 -420 -442 -446 -4 -42 1 -57 28 -85 15 -15 42 -43 60 -62 l32 -34
-100 -100 c-88 -88 -100 -104 -100 -135 0 -42 7 -54 44 -73 43 -22 68 -7 173
97 51 51 95 91 99 91 6 -2 112 -104 172 -166 l32 -34 -100 -100 c-89 -89 -100
-104 -100 -135 0 -48 30 -79 77 -79 33 0 47 10 132 95 53 53 101 95 106 95 6
-1 34 -23 63 -51 60 -57 92 -72 125 -60 12 5 113 101 224 213 215 216 242 254
243 338 0 63 -15 107 -50 151 -16 21 -30 40 -30 42 0 8 139 96 221 141 229
123 459 196 729 231 103 13 432 13 510 0 19 -3 62 -11 95 -16 358 -61 709
-226 995 -469 342 -289 595 -718 684 -1155 29 -140 35 -192 41 -335 7 -162 13
-184 65 -244 51 -58 99 -80 175 -80 86 -1 145 26 192 87 47 63 56 111 49 267
-3 74 -8 144 -10 155 -2 11 -7 45 -10 75 -18 140 -66 341 -118 490 -220 627
-680 1150 -1273 1448 -70 35 -116 56 -200 92 -85 37 -376 122 -465 136 -14 2
-38 6 -55 9 -16 3 -50 8 -75 11 -25 3 -56 8 -70 11 -28 5 -456 14 -461 9z"/>
<path d="M2670 3900 c-28 -28 -976 -1451 -985 -1479 -10 -31 13 -81 42 -92 13
-5 152 -9 309 -9 l284 0 0 -533 c0 -585 -2 -568 60 -582 16 -4 39 -4 50 0 13
4 201 276 517 750 475 713 495 745 489 779 -12 63 -27 66 -351 66 l-285 0 0
523 c0 287 -3 532 -6 545 -7 25 -51 52 -84 52 -11 0 -29 -9 -40 -20z"/>
<path d="M175 2794 c-35 -9 -110 -65 -131 -98 -40 -61 -46 -99 -40 -249 3 -78
8 -151 10 -162 2 -12 7 -48 11 -80 4 -33 9 -69 12 -80 2 -11 8 -41 13 -66 142
-717 602 -1354 1242 -1722 264 -152 609 -271 908 -312 25 -3 59 -8 75 -11 82
-12 458 -11 559 2 154 19 243 34 320 55 23 6 46 12 51 14 41 9 74 18 95 26 14
5 34 11 45 13 47 9 269 103 389 164 71 37 186 104 254 149 l124 83 41 -40 c54
-52 99 -73 168 -78 99 -7 129 13 361 246 115 115 207 216 208 227 5 45 -3 59
-60 119 l-60 63 94 93 c106 104 122 133 100 176 -19 36 -31 44 -73 44 -29 0
-45 -11 -107 -72 -40 -40 -85 -85 -101 -101 l-30 -27 -101 102 -101 103 99
101 c88 89 100 105 100 136 0 34 -25 68 -61 80 -29 11 -74 -20 -163 -111 l-89
-91 -63 60 c-60 57 -74 65 -119 60 -11 -1 -112 -93 -227 -208 -237 -235 -254
-261 -246 -367 6 -64 17 -92 58 -138 l25 -28 -25 -19 c-36 -28 -205 -130 -215
-130 -5 0 -16 -6 -24 -13 -9 -8 -47 -27 -86 -42 -38 -16 -74 -32 -80 -36 -31
-21 -290 -96 -395 -114 -19 -3 -48 -8 -65 -11 -164 -29 -480 -26 -655 5 -449
79 -837 283 -1147 602 -45 46 -98 104 -118 129 -20 25 -42 53 -50 62 -51 63
-161 243 -213 348 -89 182 -164 420 -188 595 -3 28 -8 57 -9 66 -2 8 -6 74
-10 145 -8 164 -23 220 -72 268 -21 20 -52 44 -68 52 -31 16 -134 27 -170 18z"/>
</g>
</svg>
